# xmcd
#
# Track frame offsets:
#	150
#	16093
#	34795
#	50825
#	67685
#	88058
#	101320
#	120109
#	137887
#	153769
#	168509
#	185365
#	213262
#
# Disc length: 3240 seconds
#
# Revision: 3
# Processed by: cddbd v1.5.2PL0 Copyright (c) Steve Scherf et al.
# Submitted via: EasyCDDAExtractor 15.3.0.1
#
DISCID=9b0ca60d
DTITLE=Alejandra Guzman - Fuerza
DYEAR=2007
DGENRE=Latin
TTITLE0=Por Un Momento
TTITLE1=Soy Solo Un Secreto
TTITLE2=Hasta El Final
TTITLE3=Todo
TTITLE4=Nada Es Como Es
TTITLE5=Mirame
TTITLE6=Quiero Ser
TTITLE7=Un Buen Dia
TTITLE8=Bellisima
TTITLE9=Diosa
TTITLE10=Siempre Tu
TTITLE11=Hasta El Final (Acustica)
TTITLE12=Data Track
EXTD=
EXTT0=
EXTT1=
EXTT2=
EXTT3=
EXTT4=
EXTT5=
EXTT6=
EXTT7=
EXTT8=
EXTT9=
EXTT10=
EXTT11=
EXTT12=
PLAYORDER=
